<svg xmlns="http://www.w3.org/2000/svg" xmlns:xlink="http://www.w3.org/1999/xlink" viewBox="0 0 98.25 94.08"><defs><style>.cls-1{fill:none;}.cls-2{isolation:isolate;}.cls-3{clip-path:url(#clip-path);}.cls-4,.cls-5{opacity:0.5;mix-blend-mode:multiply;}.cls-4{fill:url(#linear-gradient);}.cls-5{fill:url(#linear-gradient-2);}.cls-6,.cls-9{fill:#fff;}.cls-7{fill:#ff7c24;}.cls-8{fill:#0a3960;}.cls-9{opacity:0.92;}.cls-10{fill:#bc0202;}.cls-11{fill:#9fc3d3;}.cls-12{fill:#cde3e8;}</style><clipPath id="clip-path" transform="translate(0 -4.04)"><path class="cls-1" d="M98.25,72.56a2.82,2.82,0,0,1-1.4,2.23L52.63,98.13a3.34,3.34,0,0,1-2.8,0L5.61,74.79A2.81,2.81,0,0,1,4.2,72.56V25.87a2.8,2.8,0,0,1,1.41-2.22L49.83.31a3.34,3.34,0,0,1,2.8,0L96.85,23.65a2.82,2.82,0,0,1,1.4,2.22Z"/></clipPath><linearGradient id="linear-gradient" x1="12.94" y1="86.57" x2="61.6" y2="40.47" gradientUnits="userSpaceOnUse"><stop offset="0.18" stop-color="#fff"/><stop offset="0.25" stop-color="#f7f7f7"/><stop offset="0.36" stop-color="#e1e1e1"/><stop offset="0.5" stop-color="#bdbdbd"/><stop offset="0.65" stop-color="#8b8b8b"/><stop offset="0.82" stop-color="#4a4a4a"/><stop offset="1"/></linearGradient><linearGradient id="linear-gradient-2" x1="79.29" y1="43.84" x2="108.48" y2="37.76" gradientUnits="userSpaceOnUse"><stop offset="0.08" stop-color="#fff"/><stop offset="0.2" stop-color="#e6e6e6"/><stop offset="0.44" stop-color="#a5a5a5"/><stop offset="0.8" stop-color="#3e3e3e"/><stop offset="1"/></linearGradient></defs><title>Asset 1</title><g class="cls-2"><g id="Layer_2" data-name="Layer 2"><g id="Layer_1-2" data-name="Layer 1"><g class="cls-3"><polygon class="cls-4" points="77.7 61.09 73.6 63.31 87.64 64.35 85.39 66.43 88.81 67.45 82.98 70.48 87.2 71.22 40.65 94.08 2.47 71.36 0 43.84 26.47 28.14 77.7 61.09"/></g><polygon class="cls-5" points="93.69 26.89 94.21 27.4 94.39 31.06 94.54 32.33 96.45 32.98 96.49 53.03 95.37 54.03 94.99 59.64 75.94 66.96 61.79 37.29 93.59 18.43 93.69 26.89"/><path class="cls-6" d="M75,14.91l.54-7.43s2.13-1.52,3-1.31,2.39.56,2.75,1,.11,7.75.11,7.75l8.38.45a16.43,16.43,0,0,1,1.27,2.06,8.41,8.41,0,0,1-.27,2.42,13.63,13.63,0,0,1-1.09,1.19L81.57,21l-.63,7-1.4.89-3.2-.19L75,27.37l0-6.29-7.42-.58A1.72,1.72,0,0,1,66.09,19a4.57,4.57,0,0,1,1-3.63C67.62,14.94,75,14.91,75,14.91Z" transform="translate(0 -4.04)"/><path class="cls-7" d="M91.07,18.4v-.13c0-1.56-.75-3.23-2.45-3.24L68,14.71c-1.7,0-2.48,1.66-2.49,3.22v.13c0,1.56.75,3.15,2.46,3.16l20.58.32C90.29,21.55,91.06,20,91.07,18.4ZM90,17.13a.15.15,0,0,1,0,.21.17.17,0,0,1-.23,0,.14.14,0,0,1,0-.22A.18.18,0,0,1,90,17.13Zm-1,0a.14.14,0,0,1,0,.21.18.18,0,0,1-.24,0,.14.14,0,0,1,0-.21A.17.17,0,0,1,89,17.11Zm.38-1a.15.15,0,0,1,0,.22.18.18,0,0,1-.23,0,.15.15,0,0,1,0-.21A.17.17,0,0,1,89.41,16.1Zm-1.34,1a.15.15,0,0,1,0,.22.17.17,0,0,1-.23,0,.15.15,0,0,1,0-.21A.18.18,0,0,1,88.07,17.09Zm.39-1a.14.14,0,0,1,0,.21.17.17,0,0,1-.23,0,.16.16,0,0,1,0-.22A.2.2,0,0,1,88.46,16.09Zm-1.35,1a.14.14,0,0,1,0,.21.17.17,0,0,1-.23,0,.14.14,0,0,1,0-.21A.17.17,0,0,1,87.11,17.08Zm.39-1a.14.14,0,0,1,0,.21.17.17,0,0,1-.23,0,.14.14,0,0,1,0-.21A.18.18,0,0,1,87.5,16.07Zm-1.34,1a.15.15,0,0,1,0,.22.18.18,0,0,1-.23,0,.14.14,0,0,1,0-.21A.18.18,0,0,1,86.16,17.06Zm.38-1a.15.15,0,0,1,0,.21.2.2,0,0,1-.24,0,.15.15,0,0,1,0-.22A.18.18,0,0,1,86.54,16.06Zm-1.34,1a.14.14,0,0,1,0,.21.17.17,0,0,1-.23,0A.16.16,0,0,1,85,17,.2.2,0,0,1,85.2,17.05Zm-1.58,1.08a.15.15,0,0,1,0,.21.17.17,0,0,1-.23,0,.13.13,0,0,1,0-.21A.17.17,0,0,1,83.62,18.13Zm2-2.09a.14.14,0,0,1,0,.21.18.18,0,0,1-.24,0,.14.14,0,0,1,0-.21A.17.17,0,0,1,85.58,16Zm-1.34,1a.14.14,0,0,1,0,.21.17.17,0,0,1-.23,0A.14.14,0,0,1,84,17,.17.17,0,0,1,84.24,17Zm-1.58,1.08a.16.16,0,0,1,0,.22.18.18,0,0,1-.23,0,.13.13,0,0,1,0-.21A.17.17,0,0,1,82.66,18.11Zm2-2.08a.14.14,0,0,1,0,.21.18.18,0,0,1-.24,0,.14.14,0,0,1,0-.21A.17.17,0,0,1,84.62,16Zm-1.34,1a.15.15,0,0,1,0,.21.18.18,0,0,1-.24,0,.15.15,0,0,1,0-.22A.18.18,0,0,1,83.28,17Zm.38-1a.15.15,0,0,1,0,.21.17.17,0,0,1-.23,0,.14.14,0,0,1,0-.21A.17.17,0,0,1,83.66,16Zm-1,0a.15.15,0,0,1,0,.22.18.18,0,0,1-.23,0,.14.14,0,0,1,0-.21A.17.17,0,0,1,82.7,16Zm-10,.85a.15.15,0,0,1,0,.22.18.18,0,0,1-.23,0,.14.14,0,0,1,0-.21A.17.17,0,0,1,72.73,16.84Zm.39-1a.14.14,0,0,1,0,.21.17.17,0,0,1-.23,0,.16.16,0,0,1,0-.22A.2.2,0,0,1,73.12,15.84Zm-1.34,1a.14.14,0,0,1,0,.21.17.17,0,0,1-.23,0,.14.14,0,0,1,0-.21A.18.18,0,0,1,71.78,16.83Zm.38-1a.14.14,0,0,1,0,.21.17.17,0,0,1-.23,0,.14.14,0,0,1,0-.21A.18.18,0,0,1,72.16,15.82Zm-1.34,1a.14.14,0,0,1,0,.21.17.17,0,0,1-.23,0,.14.14,0,0,1,0-.21A.18.18,0,0,1,70.82,16.81Zm.38-1a.14.14,0,0,1,0,.21A.18.18,0,0,1,71,16a.15.15,0,0,1,0-.22A.17.17,0,0,1,71.2,15.81Zm-1,0a.14.14,0,0,1,0,.21A.18.18,0,0,1,70,16a.14.14,0,0,1,0-.21A.17.17,0,0,1,70.24,15.79ZM67.13,16a.14.14,0,0,1,0-.21.17.17,0,0,1,.23,0,.14.14,0,0,1,0,.22A.18.18,0,0,1,67.13,16Zm-.38,1a.13.13,0,0,1,0-.21.17.17,0,0,1,.23,0A.15.15,0,0,1,67,17,.17.17,0,0,1,66.75,17Zm1.34-1a.13.13,0,0,1,0-.21.17.17,0,0,1,.23,0,.15.15,0,0,1,0,.21A.17.17,0,0,1,68.09,16Zm-2,2.09a.15.15,0,0,1,0-.22.18.18,0,0,1,.23,0,.13.13,0,0,1,0,.21A.18.18,0,0,1,66.11,18.06ZM67.71,17a.14.14,0,0,1,0-.22.17.17,0,0,1,.23,0,.14.14,0,0,1,0,.21A.18.18,0,0,1,67.71,17Zm1.34-1a.13.13,0,0,1,0-.21.18.18,0,0,1,.23,0,.16.16,0,0,1,0,.22A.18.18,0,0,1,69.05,16Zm-2,2.09a.14.14,0,0,1,0-.21.17.17,0,0,1,.23,0,.14.14,0,0,1,0,.21A.17.17,0,0,1,67.09,18.07ZM68.66,17a.14.14,0,0,1,0-.21.17.17,0,0,1,.23,0,.14.14,0,0,1,0,.21A.17.17,0,0,1,68.66,17Zm-2,2.18a.14.14,0,0,1,0-.21.17.17,0,0,1,.23,0,.14.14,0,0,1,0,.21A.17.17,0,0,1,66.7,19.17Zm1.35-1.08a.14.14,0,0,1,0-.22.18.18,0,0,1,.23,0,.15.15,0,0,1,0,.21A.17.17,0,0,1,68.05,18.09ZM69.62,17a.16.16,0,0,1,0-.22.2.2,0,0,1,.24,0,.14.14,0,0,1,0,.21A.17.17,0,0,1,69.62,17Zm-2,2.17a.14.14,0,0,1,0-.21.17.17,0,0,1,.23,0,.13.13,0,0,1,0,.21A.17.17,0,0,1,67.66,19.18ZM69,18.1a.14.14,0,0,1,0-.21.17.17,0,0,1,.23,0,.16.16,0,0,1,0,.22A.2.2,0,0,1,69,18.1Zm-2,2.18a.14.14,0,0,1,0-.21.17.17,0,0,1,.23,0,.14.14,0,0,1,0,.21A.18.18,0,0,1,67,20.28Zm1.58-1.08a.14.14,0,0,1,0-.21.17.17,0,0,1,.23,0,.13.13,0,0,1,0,.21A.17.17,0,0,1,68.62,19.2ZM70,18.12a.14.14,0,0,1,0-.21.17.17,0,0,1,.23,0,.15.15,0,0,1,0,.21A.18.18,0,0,1,70,18.12ZM68,20.3a.15.15,0,0,1,0-.22.18.18,0,0,1,.23,0,.14.14,0,0,1,0,.21A.17.17,0,0,1,68,20.3Zm1.58-1.09a.14.14,0,0,1,0-.21.18.18,0,0,1,.23,0,.13.13,0,0,1,0,.21A.17.17,0,0,1,69.58,19.21Zm1.34-1.08a.14.14,0,0,1,0-.21.18.18,0,0,1,.24,0,.14.14,0,0,1,0,.21A.18.18,0,0,1,70.92,18.13Zm-2,2.18a.14.14,0,0,1,0-.21.18.18,0,0,1,.24,0,.15.15,0,0,1,0,.22A.18.18,0,0,1,69,20.31Zm1.58-1.08a.13.13,0,0,1,0-.21.17.17,0,0,1,.23,0,.14.14,0,0,1,0,.22A.18.18,0,0,1,70.54,19.23Zm1.34-1.08a.14.14,0,0,1,0-.21.18.18,0,0,1,.24,0,.14.14,0,0,1,0,.21A.17.17,0,0,1,71.88,18.15Zm-2,2.18a.14.14,0,0,1,0-.21.17.17,0,0,1,.23,0,.13.13,0,0,1,0,.21A.17.17,0,0,1,69.92,20.33Zm1.58-1.08a.14.14,0,0,1,0-.22.18.18,0,0,1,.23,0,.15.15,0,0,1,0,.21A.17.17,0,0,1,71.5,19.25Zm1.34-1.08a.16.16,0,0,1,0-.22.18.18,0,0,1,.23,0,.14.14,0,0,1,0,.21A.18.18,0,0,1,72.84,18.17Zm-2,2.17a.14.14,0,0,1,0-.21.18.18,0,0,1,.24,0,.15.15,0,0,1,0,.22A.18.18,0,0,1,70.88,20.34Zm1.57-1.08a.14.14,0,0,1,0-.21.17.17,0,0,1,.23,0,.16.16,0,0,1,0,.22A.2.2,0,0,1,72.45,19.26Zm-.61,1.1a.14.14,0,0,1,0-.21.17.17,0,0,1,.23,0,.15.15,0,0,1,0,.21A.17.17,0,0,1,71.84,20.36Zm1,0a.13.13,0,0,1,0-.21.18.18,0,0,1,.23,0,.16.16,0,0,1,0,.22A.17.17,0,0,1,72.8,20.37Zm1,0a.14.14,0,0,1,0-.21.17.17,0,0,1,.23,0,.14.14,0,0,1,0,.21A.18.18,0,0,1,73.75,20.39Zm1,0a.15.15,0,0,1,0-.22.18.18,0,0,1,.23,0,.15.15,0,0,1,0,.21A.18.18,0,0,1,74.71,20.41Zm1,0a.14.14,0,0,1,0-.21.17.17,0,0,1,.23,0,.14.14,0,0,1,0,.21A.17.17,0,0,1,75.67,20.42Zm1,0a.14.14,0,0,1,0-.21.18.18,0,0,1,.24,0,.14.14,0,0,1,0,.21A.17.17,0,0,1,76.63,20.44Zm1,0a.14.14,0,0,1,0-.21.18.18,0,0,1,.24,0,.15.15,0,0,1,0,.22A.17.17,0,0,1,77.59,20.45Zm1,0a.14.14,0,0,1,0-.21.17.17,0,0,1,.23,0,.13.13,0,0,1,0,.21A.17.17,0,0,1,78.55,20.47Zm1,0a.13.13,0,0,1,0-.21.17.17,0,0,1,.23,0,.14.14,0,0,1,0,.21A.16.16,0,0,1,79.51,20.48Zm.95,0a.14.14,0,0,1,0-.21.17.17,0,0,1,.23,0,.14.14,0,0,1,0,.21A.18.18,0,0,1,80.46,20.5Zm1,0a.14.14,0,0,1,0-.22.18.18,0,0,1,.23,0,.15.15,0,0,1,0,.21A.17.17,0,0,1,81.43,20.52Zm.39-.3c-.41,0-7.9-.15-8.11-.18s-.4,0-.39-.42.1-3.24.1-3.24a.37.37,0,0,1,.37-.43.14.14,0,0,1,0-.1.17.17,0,0,1,.23,0,.16.16,0,0,1,.05.1h.63a.16.16,0,0,1,0-.09.17.17,0,0,1,.23,0,.14.14,0,0,1,0,.1l.63,0a.16.16,0,0,1,.05-.11.18.18,0,0,1,.23,0A.16.16,0,0,1,76,16l.63,0a.16.16,0,0,1,0-.11.17.17,0,0,1,.23,0A.1.1,0,0,1,77,16l.64,0a.15.15,0,0,1,.05-.12.16.16,0,0,1,.23,0A.11.11,0,0,1,78,16h.64a.12.12,0,0,1,0-.12.17.17,0,0,1,.23,0,.14.14,0,0,1,0,.13l.64,0a.13.13,0,0,1,0-.14.18.18,0,0,1,.23,0,.14.14,0,0,1,0,.14h.64a.15.15,0,0,1,0-.14.18.18,0,0,1,.24,0,.14.14,0,0,1,0,.15l.65,0a.17.17,0,0,1,0-.16.2.2,0,0,1,.24,0,.16.16,0,0,1,0,.16H82c.12,0,.31,0,.31.32,0,.06,0,.27,0,.55a.13.13,0,0,1,0,.18c0,.61,0,1.46,0,2a.14.14,0,0,1,0,.15c0,.28,0,.48,0,.52S82.23,20.23,81.82,20.22ZM83,19.43a.14.14,0,0,1,0-.21.17.17,0,0,1,.23,0,.13.13,0,0,1,0,.21A.17.17,0,0,1,83,19.43Zm1.34-1.08a.14.14,0,0,1,0-.21.17.17,0,0,1,.23,0,.16.16,0,0,1,0,.22A.2.2,0,0,1,84.34,18.35Zm-2,2.18a.14.14,0,0,1,0-.21.17.17,0,0,1,.23,0,.14.14,0,0,1,0,.21A.18.18,0,0,1,82.38,20.53ZM84,19.45a.14.14,0,0,1,0-.21.17.17,0,0,1,.23,0,.13.13,0,0,1,0,.21A.17.17,0,0,1,84,19.45Zm1.34-1.08a.14.14,0,0,1,0-.21.18.18,0,0,1,.24,0,.14.14,0,0,1,0,.21A.18.18,0,0,1,85.3,18.37Zm-2,2.18a.14.14,0,0,1,0-.21.18.18,0,0,1,.24,0,.14.14,0,0,1,0,.21A.18.18,0,0,1,83.34,20.55Zm1.58-1.08a.16.16,0,0,1,0-.22.18.18,0,0,1,.23,0,.14.14,0,0,1,0,.21A.17.17,0,0,1,84.92,19.47Zm1.34-1.08a.15.15,0,0,1,0-.22.18.18,0,0,1,.23,0,.14.14,0,0,1,0,.21A.18.18,0,0,1,86.26,18.39Zm-2,2.17a.14.14,0,0,1,0-.21.18.18,0,0,1,.24,0,.15.15,0,0,1,0,.22A.18.18,0,0,1,84.3,20.56Zm1.58-1.08a.14.14,0,0,1,0-.21.17.17,0,0,1,.23,0,.14.14,0,0,1,0,.21A.17.17,0,0,1,85.88,19.48Zm1.34-1.08a.14.14,0,0,1,0-.21.17.17,0,0,1,.23,0,.14.14,0,0,1,0,.21A.17.17,0,0,1,87.22,18.4Zm-2,2.18a.14.14,0,0,1,0-.21.18.18,0,0,1,.24,0,.14.14,0,0,1,0,.21A.17.17,0,0,1,85.26,20.58Zm1.58-1.08a.14.14,0,0,1,0-.22.18.18,0,0,1,.23,0,.14.14,0,0,1,0,.21A.17.17,0,0,1,86.84,19.5Zm1.34-1.08a.16.16,0,0,1,0-.22.2.2,0,0,1,.24,0,.15.15,0,0,1,0,.21A.17.17,0,0,1,88.18,18.42Zm-2,2.17a.14.14,0,0,1,0-.21.19.19,0,0,1,.23,0,.14.14,0,0,1,0,.22A.18.18,0,0,1,86.22,20.59Zm1.57-1.08a.14.14,0,0,1,0-.21.17.17,0,0,1,.23,0,.16.16,0,0,1,0,.22A.18.18,0,0,1,87.79,19.51Zm1.35-1.08a.14.14,0,0,1,0-.21.17.17,0,0,1,.23,0,.14.14,0,0,1,0,.21A.17.17,0,0,1,89.14,18.43Zm-2,2.18a.14.14,0,0,1,0-.21.17.17,0,0,1,.23,0,.14.14,0,0,1,0,.21A.17.17,0,0,1,87.18,20.61Zm1.57-1.08a.14.14,0,0,1,0-.21.17.17,0,0,1,.23,0,.14.14,0,0,1,0,.21A.17.17,0,0,1,88.75,19.53Zm1.42-1.08a.14.14,0,0,1,0-.21.17.17,0,0,1,.23,0,.13.13,0,0,1,0,.21A.17.17,0,0,1,90.17,18.45Zm-2,2.17a.13.13,0,0,1,0-.21.17.17,0,0,1,.23,0,.14.14,0,0,1,0,.21A.16.16,0,0,1,88.14,20.62Zm1.57-1.08a.15.15,0,0,1,0-.21.18.18,0,0,1,.24,0,.14.14,0,0,1,0,.21A.16.16,0,0,1,89.71,19.54Zm-.62,1.1a.14.14,0,0,1,0-.21.17.17,0,0,1,.23,0,.14.14,0,0,1,0,.21A.18.18,0,0,1,89.09,20.64Zm-7.2-3.81c0-.22-.15-.23-.24-.25s-7-.23-7.41-.24-.37.35-.37.35l0,1.26a.18.18,0,0,1,.2,0,.14.14,0,0,1,0,.22.18.18,0,0,1-.2,0c0,.49,0,.95,0,1.06,0,.33.14.31.31.33s7.05.21,7.38.22.35-.13.36-.24S81.89,17.06,81.89,16.83Zm-7.48.25a.14.14,0,0,1,0-.21.17.17,0,0,1,.23,0,.14.14,0,0,1,0,.21A.18.18,0,0,1,74.41,17.08Zm1,0a.14.14,0,0,1,0-.21.17.17,0,0,1,.23,0,.15.15,0,0,1,0,.21A.18.18,0,0,1,75.37,17.1Zm-.61,1.1a.14.14,0,0,1,0-.22A.18.18,0,0,1,75,18a.14.14,0,0,1,0,.21A.17.17,0,0,1,74.76,18.2Zm1.57-1.08a.15.15,0,0,1,0-.22.18.18,0,0,1,.23,0,.15.15,0,0,1,0,.21A.2.2,0,0,1,76.33,17.12Zm-2,2.17a.14.14,0,0,1,0-.21.18.18,0,0,1,.23,0,.16.16,0,0,1,0,.22A.2.2,0,0,1,74.37,19.29Zm1.34-1.08a.14.14,0,0,1,0-.21A.17.17,0,0,1,76,18a.16.16,0,0,1,0,.22A.2.2,0,0,1,75.71,18.21Zm1.58-1.08a.14.14,0,0,1,0-.21.17.17,0,0,1,.23,0,.14.14,0,0,1,0,.21A.17.17,0,0,1,77.29,17.13Zm-2,2.18a.14.14,0,0,1,0-.21.18.18,0,0,1,.24,0,.14.14,0,0,1,0,.21A.17.17,0,0,1,75.33,19.31Zm1.34-1.08a.14.14,0,0,1,0-.21.17.17,0,0,1,.23,0,.15.15,0,0,1,0,.21A.18.18,0,0,1,76.67,18.23Zm1.58-1.08a.14.14,0,0,1,0-.21.18.18,0,0,1,.24,0,.14.14,0,0,1,0,.21A.17.17,0,0,1,78.25,17.15Zm-2,2.17a.14.14,0,0,1,0-.21.17.17,0,0,1,.23,0,.13.13,0,0,1,0,.21A.16.16,0,0,1,76.29,19.32Zm1.34-1.08a.14.14,0,0,1,0-.21.18.18,0,0,1,.23,0,.16.16,0,0,1,0,.22A.2.2,0,0,1,77.63,18.24Zm1.58-1.08a.15.15,0,0,1,0-.21.17.17,0,0,1,.23,0,.14.14,0,0,1,0,.22A.18.18,0,0,1,79.21,17.16Zm-2,2.18a.14.14,0,0,1,0-.21.17.17,0,0,1,.23,0,.14.14,0,0,1,0,.21A.17.17,0,0,1,77.25,19.34Zm1.34-1.08a.14.14,0,0,1,0-.21.18.18,0,0,1,.24,0,.14.14,0,0,1,0,.21A.17.17,0,0,1,78.59,18.26Zm1.58-1.08a.14.14,0,0,1,0-.21.17.17,0,0,1,.23,0,.14.14,0,0,1,0,.21A.17.17,0,0,1,80.17,17.18Zm-2,2.18a.15.15,0,0,1,0-.22.18.18,0,0,1,.23,0,.14.14,0,0,1,0,.21A.17.17,0,0,1,78.21,19.36Zm1.34-1.08a.16.16,0,0,1,0-.22.2.2,0,0,1,.24,0,.14.14,0,0,1,0,.21A.18.18,0,0,1,79.55,18.28Zm1.58-1.09a.14.14,0,0,1,0-.21.17.17,0,0,1,.23,0,.14.14,0,0,1,0,.21A.17.17,0,0,1,81.13,17.19Zm-2,2.18a.13.13,0,0,1,0-.21.17.17,0,0,1,.23,0,.16.16,0,0,1,0,.22A.18.18,0,0,1,79.17,19.37Zm1.34-1.08a.14.14,0,0,1,0-.21.17.17,0,0,1,.23,0,.13.13,0,0,1,0,.21A.17.17,0,0,1,80.51,18.29Zm-.39,1.1a.14.14,0,0,1,0-.21.17.17,0,0,1,.23,0,.15.15,0,0,1,0,.21A.18.18,0,0,1,80.12,19.39Zm1.35-1.08a.16.16,0,0,1,0-.22.2.2,0,0,1,.24,0,.15.15,0,0,1,0,.21A.17.17,0,0,1,81.47,18.31Zm-.39,1.09a.14.14,0,0,1,0-.21.18.18,0,0,1,.23,0,.15.15,0,0,1,0,.22A.18.18,0,0,1,81.08,19.4Z" transform="translate(0 -4.04)"/><path class="cls-7" d="M80.3,13.88l-1.69,0a.18.18,0,0,1,0,.08.18.18,0,0,1-.23,0,.2.2,0,0,1,0-.08l-1.74,0a.31.31,0,0,0-.33.27v.27l4.4,0v-.21A.3.3,0,0,0,80.3,13.88Zm-3.19.34a.15.15,0,0,1,0-.22.18.18,0,0,1,.23,0,.14.14,0,0,1,0,.21A.17.17,0,0,1,77.11,14.22Zm2.42.07a.14.14,0,0,1,0-.21.17.17,0,0,1,.23,0,.15.15,0,0,1,0,.22A.18.18,0,0,1,79.53,14.29Zm2.06,12.83.17-6.62-1,0,0,1.15,0,0a.14.14,0,0,1,0,.21,0,0,0,0,1,0,0V22a.34.34,0,0,1-.36.31l-4.2-.06a.41.41,0,0,1-.35-.39s0-.64,0-1.58l-1.15-.05L74.46,27c0,1.56,1.8,2.28,3.51,2.3h.14C79.82,29.36,81.57,28.68,81.59,27.12Zm-1-2a.14.14,0,0,1,0,.21.17.17,0,0,1-.23,0,.14.14,0,0,1,0-.21A.18.18,0,0,1,80.63,25.14Zm0-.88a.16.16,0,0,1,0,.22.19.19,0,0,1-.24,0,.14.14,0,0,1,0-.21A.17.17,0,0,1,80.65,24.26Zm-1.22.52a.18.18,0,0,1-.24,0,.15.15,0,0,1,0-.22.18.18,0,0,1,.23,0A.15.15,0,0,1,79.43,24.78Zm1.24-1.39a.14.14,0,0,1,0,.21.17.17,0,0,1-.23,0,.14.14,0,0,1,0-.21A.18.18,0,0,1,80.67,23.39Zm-1.22.51a.17.17,0,0,1-.23,0,.14.14,0,0,1,0-.21.17.17,0,0,1,.23,0A.13.13,0,0,1,79.45,23.9Zm1.25-1.39a.14.14,0,0,1,0,.21.17.17,0,0,1-.23,0,.16.16,0,0,1,0-.22A.2.2,0,0,1,80.7,22.51Zm-1.22.3a.15.15,0,0,1,0,.22.18.18,0,0,1-.23,0,.14.14,0,0,1,0-.21A.17.17,0,0,1,79.48,22.81Zm-3.75-.2a.14.14,0,0,1,0-.21.17.17,0,0,1,.23,0,.14.14,0,0,1,0,.22A.18.18,0,0,1,75.73,22.61Zm0,.88a.14.14,0,0,1,0-.21.17.17,0,0,1,.23,0,.14.14,0,0,1,0,.21A.18.18,0,0,1,75.7,23.49ZM76.83,23a.14.14,0,0,1,0-.21.17.17,0,0,1,.23,0,.14.14,0,0,1,0,.21A.17.17,0,0,1,76.83,23Zm-1.15,1.39a.14.14,0,0,1,0-.21.17.17,0,0,1,.23,0,.14.14,0,0,1,0,.21A.17.17,0,0,1,75.68,24.36Zm2.37-1.91a.16.16,0,0,1,.23,0,.15.15,0,0,1,0,.21.2.2,0,0,1-.24,0A.15.15,0,0,1,78.05,22.45ZM76.8,23.84a.14.14,0,0,1,0-.21.17.17,0,0,1,.23,0,.14.14,0,0,1,0,.21A.17.17,0,0,1,76.8,23.84Zm-1.14,1.4a.14.14,0,0,1,0-.21.17.17,0,0,1,.23,0,.15.15,0,0,1,0,.22A.18.18,0,0,1,75.66,25.24ZM78,23.33a.17.17,0,0,1,.23,0,.14.14,0,0,1,0,.21.17.17,0,0,1-.23,0A.14.14,0,0,1,78,23.33Zm-1.25,1.39a.14.14,0,0,1,0-.21.18.18,0,0,1,.24,0,.15.15,0,0,1,0,.22A.18.18,0,0,1,76.78,24.72Zm-1.15,1.4a.15.15,0,0,1,0-.22.18.18,0,0,1,.23,0,.14.14,0,0,1,0,.21A.17.17,0,0,1,75.63,26.12ZM78,24.2a.18.18,0,0,1,.23,0,.14.14,0,0,1,0,.21.17.17,0,0,1-.23,0A.15.15,0,0,1,78,24.2Zm-1.24,1.4a.13.13,0,0,1,0-.21.17.17,0,0,1,.23,0,.15.15,0,0,1,0,.21A.17.17,0,0,1,76.76,25.6ZM75.61,27a.14.14,0,0,1,0-.21.18.18,0,0,1,.24,0,.14.14,0,0,1,0,.21A.17.17,0,0,1,75.61,27ZM78,25.08a.17.17,0,0,1,.23,0,.14.14,0,0,1,0,.21.2.2,0,0,1-.24,0A.14.14,0,0,1,78,25.08Zm-1.25,1.39a.14.14,0,0,1,0-.21.17.17,0,0,1,.23,0,.14.14,0,0,1,0,.21A.17.17,0,0,1,76.73,26.47Zm-1.14,1.4a.13.13,0,0,1,0-.21.17.17,0,0,1,.23,0,.15.15,0,0,1,0,.22A.18.18,0,0,1,75.59,27.87ZM78,26a.18.18,0,0,1,.24,0,.14.14,0,0,1,0,.21.17.17,0,0,1-.23,0A.14.14,0,0,1,78,26Zm-1.24,1.39a.14.14,0,0,1,0-.21.17.17,0,0,1,.23,0,.15.15,0,0,1,0,.22A.18.18,0,0,1,76.71,27.35Zm2.46-1.91a.18.18,0,0,1,.24,0,.15.15,0,0,1,0,.22.18.18,0,0,1-.23,0A.14.14,0,0,1,79.17,25.44Zm-1.24,1.39a.18.18,0,0,1,.23,0,.14.14,0,0,1,0,.21.18.18,0,0,1-.24,0A.16.16,0,0,1,77.93,26.83Zm-1.25,1.4a.14.14,0,0,1,0-.21.17.17,0,0,1,.23,0,.15.15,0,0,1,0,.21A.18.18,0,0,1,76.68,28.23Zm2.47-1.91a.17.17,0,0,1,.23,0,.15.15,0,0,1,0,.21.17.17,0,0,1-.23,0A.14.14,0,0,1,79.15,26.32Zm-1.25,1.6a.14.14,0,0,1,0-.21.17.17,0,0,1,.23,0,.15.15,0,0,1,0,.22A.17.17,0,0,1,77.9,27.92ZM80.37,26a.18.18,0,0,1,.23,0,.14.14,0,0,1,0,.21.17.17,0,0,1-.24,0A.14.14,0,0,1,80.37,26Zm-1.24,1.18a.18.18,0,0,1,.23,0,.15.15,0,0,1,0,.21.18.18,0,0,1-.24,0A.14.14,0,0,1,79.13,27.19Zm-1.25,1.63a.14.14,0,0,1,0-.21.18.18,0,0,1,.24,0,.14.14,0,0,1,0,.21A.17.17,0,0,1,77.88,28.82Zm2.47-1.93a.17.17,0,0,1,.23,0,.14.14,0,0,1,0,.21.17.17,0,0,1-.23,0A.14.14,0,0,1,80.35,26.89ZM79.1,28.28a.14.14,0,0,1,0-.21.18.18,0,0,1,.24,0,.15.15,0,0,1,0,.22A.18.18,0,0,1,79.1,28.28Zm1.22-.3a.16.16,0,0,1,0-.22.18.18,0,0,1,.23,0,.13.13,0,0,1,0,.21A.17.17,0,0,1,80.32,28Zm-4.25-6.41a.33.33,0,0,0,.3.33l3.75.08a.3.3,0,0,0,.3-.16,1.06,1.06,0,0,1,0-.22l-2.2,0,0,0a.14.14,0,0,1,0,.21.17.17,0,0,1-.23,0,.14.14,0,0,1,0-.21l0,0Zm0-7.93c0-.1.16-.12.25-.12l4.21.06a.38.38,0,0,1,.28.12.17.17,0,0,1,.15,0,.15.15,0,0,1,0,.22.11.11,0,0,1-.08,0l0,1.47,1.06.18.19-7.34c0-1.56-1.7-2.28-3.41-2.3h-.15C76.81,6,75,6.66,75,8.22l-.18,7.28,1.13,0A10.38,10.38,0,0,1,76,13.64Zm1-.32a.14.14,0,0,1,0-.21.18.18,0,0,1,.23,0,.14.14,0,0,1,0,.21A.17.17,0,0,1,77.09,13.32ZM81,12.87a.14.14,0,0,1,0,.21.16.16,0,0,1-.23,0,.14.14,0,0,1,0-.21A.2.2,0,0,1,81,12.87Zm-1.23.51a.17.17,0,0,1-.23,0,.14.14,0,0,1,0-.21.17.17,0,0,1,.23,0A.14.14,0,0,1,79.73,13.38ZM81,12a.14.14,0,0,1,0,.21.18.18,0,0,1-.24,0,.14.14,0,0,1,0-.21A.17.17,0,0,1,81,12Zm-1.22.52a.2.2,0,0,1-.24,0,.14.14,0,0,1,0-.21.18.18,0,0,1,.23,0A.16.16,0,0,1,79.76,12.51ZM81,11.11a.15.15,0,0,1,0,.22.17.17,0,0,1-.23,0,.14.14,0,0,1,0-.21A.17.17,0,0,1,81,11.11ZM78.54,13a.17.17,0,0,1-.23,0,.13.13,0,0,1,0-.21.17.17,0,0,1,.23,0A.14.14,0,0,1,78.54,13Zm1.24-1.39a.17.17,0,0,1-.23,0,.16.16,0,0,1,0-.22.18.18,0,0,1,.23,0A.13.13,0,0,1,79.78,11.63ZM81,10.24a.14.14,0,0,1,0,.21.17.17,0,0,1-.23,0,.14.14,0,0,1,0-.21A.18.18,0,0,1,81,10.24Zm-2.47,1.91a.17.17,0,0,1-.23,0,.15.15,0,0,1,0-.21.17.17,0,0,1,.23,0A.13.13,0,0,1,78.56,12.15Zm1.24-1.4a.17.17,0,0,1-.23,0,.14.14,0,0,1,0-.21.17.17,0,0,1,.23,0A.14.14,0,0,1,79.8,10.75Zm1.25-1.39a.14.14,0,0,1,0,.21.17.17,0,0,1-.23,0,.14.14,0,0,1,0-.21A.17.17,0,0,1,81.05,9.36Zm-1.22.52a.18.18,0,0,1-.23,0,.14.14,0,0,1,0-.21.17.17,0,0,1,.23,0A.14.14,0,0,1,79.83,9.88Zm1.24-1.4a.14.14,0,0,1,0,.22.18.18,0,0,1-.23,0,.14.14,0,0,1,0-.21A.17.17,0,0,1,81.07,8.48ZM79.85,9a.17.17,0,0,1-.23,0,.14.14,0,0,1,0-.21.17.17,0,0,1,.23,0A.14.14,0,0,1,79.85,9ZM81.1,7.61a.14.14,0,0,1,0,.21.17.17,0,0,1-.23,0,.14.14,0,0,1,0-.21A.18.18,0,0,1,81.1,7.61Zm-1.22.3a.16.16,0,0,1,0,.22.2.2,0,0,1-.24,0,.14.14,0,0,1,0-.21A.17.17,0,0,1,79.88,7.91Zm0-.87a.14.14,0,0,1,0,.21.17.17,0,0,1-.23,0,.14.14,0,0,1,0-.21A.16.16,0,0,1,79.9,7Zm-1.19-.43a.14.14,0,0,1,0,.21.17.17,0,0,1-.23,0,.14.14,0,0,1,0-.21A.17.17,0,0,1,78.71,6.61Zm-2.58,1.1a.14.14,0,0,1,0-.21.18.18,0,0,1,.24,0,.14.14,0,0,1,0,.21A.17.17,0,0,1,76.13,7.71Zm1.12-.52a.14.14,0,0,1,0-.21.17.17,0,0,1,.23,0,.14.14,0,0,1,0,.21A.17.17,0,0,1,77.25,7.19ZM76.11,8.58a.14.14,0,0,1,0-.21.18.18,0,0,1,.23,0,.14.14,0,0,1,0,.21A.16.16,0,0,1,76.11,8.58Zm1.12-.51a.15.15,0,0,1,0-.22.18.18,0,0,1,.23,0,.13.13,0,0,1,0,.21A.17.17,0,0,1,77.23,8.07ZM76.08,9.46a.14.14,0,0,1,0-.21.17.17,0,0,1,.23,0,.15.15,0,0,1,0,.22A.18.18,0,0,1,76.08,9.46Zm2.37-1.91a.17.17,0,0,1,.23,0,.14.14,0,0,1,0,.22.18.18,0,0,1-.23,0A.14.14,0,0,1,78.45,7.55ZM77.2,8.94a.14.14,0,0,1,0-.21.18.18,0,0,1,.23,0,.16.16,0,0,1,0,.22A.2.2,0,0,1,77.2,8.94Zm-1.14,1.4a.14.14,0,0,1,0-.21.17.17,0,0,1,.23,0,.13.13,0,0,1,0,.21A.17.17,0,0,1,76.06,10.34Zm2.37-1.91a.17.17,0,0,1,.23,0,.15.15,0,0,1,0,.21.18.18,0,0,1-.24,0A.14.14,0,0,1,78.43,8.43ZM77.18,9.82a.14.14,0,0,1,0-.21.17.17,0,0,1,.23,0,.14.14,0,0,1,0,.21A.17.17,0,0,1,77.18,9.82ZM76,11.21A.14.14,0,0,1,76,11a.17.17,0,0,1,.23,0,.15.15,0,0,1,0,.21A.18.18,0,0,1,76,11.21ZM78.4,9.3a.18.18,0,0,1,.24,0,.14.14,0,0,1,0,.21.17.17,0,0,1-.23,0A.14.14,0,0,1,78.4,9.3Zm-1.24,1.4a.14.14,0,0,1,0-.22.18.18,0,0,1,.23,0,.14.14,0,0,1,0,.21A.18.18,0,0,1,77.16,10.7ZM76,12.09a.14.14,0,0,1,0-.21.17.17,0,0,1,.23,0,.15.15,0,0,1,0,.22A.18.18,0,0,1,76,12.09Zm2.37-1.91a.17.17,0,0,1,.23,0,.14.14,0,0,1,0,.21.17.17,0,0,1-.23,0A.14.14,0,0,1,78.38,10.18Zm-1.25,1.39a.14.14,0,0,1,0-.21.17.17,0,0,1,.23,0,.15.15,0,0,1,0,.22A.18.18,0,0,1,77.13,11.57ZM76,13a.14.14,0,0,1,0-.21.17.17,0,0,1,.23,0,.13.13,0,0,1,0,.21A.17.17,0,0,1,76,13Zm2.37-1.91a.17.17,0,0,1,.23,0,.14.14,0,0,1,0,.21.17.17,0,0,1-.23,0A.14.14,0,0,1,78.36,11.06Zm-1.25,1.39a.14.14,0,0,1,0-.21.17.17,0,0,1,.23,0,.14.14,0,0,1,0,.21A.17.17,0,0,1,77.11,12.45Z" transform="translate(0 -4.04)"/><path class="cls-6" d="M41.58,48.48c0,.43-1.62.7-3.62.71s-3.62-.24-3.62-.67S36,47.87,38,47.86,41.58,48.06,41.58,48.48Z" transform="translate(0 -4.04)"/><path class="cls-6" d="M41.57,48.72c-.23.39-1.8.65-3.63.66-2,0-3.63-.22-3.64-.67l0,.31h0c0,.45,1.64.72,3.62.71s3.6-.3,3.61-.74h0S41.59,48.69,41.57,48.72Z" transform="translate(0 -4.04)"/><path class="cls-6" d="M37.84,48.57l-1.07,0V44.93a9.34,9.34,0,0,1-.71-2.58C36,41.27,36,41.27,36,29.54c0,0,1.07.05,2,.05C38,41,37.84,48.57,37.84,48.57Z" transform="translate(0 -4.04)"/><path class="cls-6" d="M39.28,29.68c0,.3.13,12.27.09,13s-.21,1.84-.3,2.29,0,3.51,0,3.8l.31-.23s0-2.35,0-3.48a6.78,6.78,0,0,0,.56-2.58c0-.82,0-12.87,0-12.87Z" transform="translate(0 -4.04)"/><path class="cls-6" d="M37.87,29.62l1.06-.08s.15,12.31.1,13-.2,1.84-.29,2.28,0,3.74,0,3.74l-1.07.14Z" transform="translate(0 -4.04)"/><path class="cls-6" d="M40.37,29.44l-4.88,0s-.07.05-.07.11,0,.12.07.12h.21v.36h-.21a.07.07,0,0,0-.07.07c0,.05,0,.12.08.12h.2v.29h-.21a.08.08,0,0,0-.07.08c0,.05,0,.09.07.08l4.89,0s.06,0,.06-.08,0-.09-.06-.09h-.21v-.3h.21s.06,0,.06-.09a.08.08,0,0,0-.07-.08h-.2v-.37h.2s.07-.05.07-.11S40.41,29.44,40.37,29.44Z" transform="translate(0 -4.04)"/><path class="cls-6" d="M34.83,41.66l0-21.83a.16.16,0,0,1,.17-.15h0l5.81,0a.16.16,0,0,1,.12,0h0a.13.13,0,0,1,0,.11h0L41,41.57a.17.17,0,0,1-.07.13h0a2.56,2.56,0,0,1-1.12.26h0a18,18,0,0,1-1.89.09h0A16.22,16.22,0,0,1,36,42h0a8.75,8.75,0,0,1-1-.17h0l-.07,0h0a.16.16,0,0,1-.05-.11Zm.34-.12c.14,0,.41.08.82.13h0a15.52,15.52,0,0,0,1.93.07h0a16.9,16.9,0,0,0,1.85-.09h0a3.47,3.47,0,0,0,.77-.13h0l.12,0h0l0-21.52-5.48,0,0,21.55Z" transform="translate(0 -4.04)"/><path class="cls-6" d="M34.8,19.83v-.07a.24.24,0,0,1,.08-.14h0a1,1,0,0,1,.38-.18h0c.41-.1,1.09-.18,1.45-.28h0l.15-.05h0c0-.28,0-1.55,0-1.55h0v-.15h2v.15s0,1.18,0,1.53h0l.18.05h0l.56.13h0a3.43,3.43,0,0,1,1.19.32h0a.18.18,0,0,1,.08.14h0v9.74h0v.16l-6.13,0,0-9.82Zm.38,9.51,5.45,0V19.79h0a7,7,0,0,0-1-.22h0a3,3,0,0,1-.95-.27h0s0,0,0,0h0s0,0,0-.09h0c0-.14,0-1.09,0-1.47H37.23c0,.38,0,1.38,0,1.46h0a.19.19,0,0,1-.07.13h0a2,2,0,0,1-.8.25h0c-.34.06-.73.12-1,.18h0a.65.65,0,0,0-.21.08h0l0,9.52Z" transform="translate(0 -4.04)"/><polygon class="cls-8" points="38.12 9.44 37.74 9.45 37.72 0 38.1 0.85 38.12 9.44"/><path class="cls-6" d="M38.39,13.9a2.65,2.65,0,0,0-.08-.29h-.09l-.11.19v1.66c0,.08-.09.14-.2.14s-.19-.06-.19-.13V13.83l-.13-.2s-.08,0-.09,0a1.21,1.21,0,0,0-.09.32.8.8,0,0,0-.16,0,8.05,8.05,0,0,0,.06,1.42c0,.19-.19.4-.29.59a20.66,20.66,0,0,0-.31,2.2l1.22,0c.89,0,1.17,0,1.17,0s-.16-2-.26-2.19-.35-.42-.32-.61a8,8,0,0,0,0-1.43A.86.86,0,0,0,38.39,13.9Z" transform="translate(0 -4.04)"/><path class="cls-6" d="M37.56,13.62c0-.12.16-.22.34-.22s.35.1.35.22h-.69Z" transform="translate(0 -4.04)"/><path class="cls-6" d="M39.3,18.16c0,.05,0,.09-.12.09H36.59c-.07,0-.13,0-.13-.09h0c0-.05.06-.08.13-.08l2.59,0c.07,0,.12,0,.12.09Z" transform="translate(0 -4.04)"/><path class="cls-9" d="M35.93,21a0,0,0,0,1,0,0h0s0,0,0,0h0l3.08,0a0,0,0,0,1,0,0h0s0,0,0,0h0l-3.07,0Z" transform="translate(0 -4.04)"/><path class="cls-9" d="M35.93,24.74s0,0,0,0h0s0,0,0,0H39s.05,0,.05,0h0a0,0,0,0,1-.05,0H35.93Z" transform="translate(0 -4.04)"/><path class="cls-9" d="M35.94,28.57s0,0,0,0h0s0,0,0,0H39s0,0,0,0h0a0,0,0,0,1,0,0H35.94Z" transform="translate(0 -4.04)"/><path class="cls-9" d="M35.93,21.7s0,0,0,0h0a0,0,0,0,1,0,0h1.39s0,0,0,0h0s0,0,0,0H35.93Z" transform="translate(0 -4.04)"/><path class="cls-9" d="M35.93,22.47a0,0,0,0,1,0,0h0a0,0,0,0,1,0,0h1.39s0,0,0,0h0s0,0,0,0H35.93Z" transform="translate(0 -4.04)"/><path class="cls-9" d="M35.93,23.23a0,0,0,0,1,0,0h0s0,0,0,0h1.39a0,0,0,0,1,0,0h0s0,0,0,0H35.93Z" transform="translate(0 -4.04)"/><path class="cls-9" d="M35.93,24s0,0,0,0h0a0,0,0,0,1,0,0h1.39a0,0,0,0,1,0,0h0s0,0,0,0H35.93Z" transform="translate(0 -4.04)"/><path class="cls-9" d="M35.94,25.52a0,0,0,0,1,0,0h0s0,0,0,0h1.39a0,0,0,0,1,0,0h0s0,0,0,0H35.94Z" transform="translate(0 -4.04)"/><path class="cls-9" d="M35.94,26.28s0,0,0,0h0a0,0,0,0,1,0,0h1.38s.06,0,0,0h0s0,0,0,0H35.94Z" transform="translate(0 -4.04)"/><path class="cls-9" d="M35.94,27.05a0,0,0,0,1,0,0h0a0,0,0,0,1,0,0h1.39s.05,0,.05,0h0s0,0-.05,0H35.94Z" transform="translate(0 -4.04)"/><path class="cls-9" d="M35.94,27.81a0,0,0,0,1,0,0h0s0,0,0,0h1.39a0,0,0,0,1,.05,0h0s0,0-.05,0H35.94Z" transform="translate(0 -4.04)"/><path class="cls-6" d="M39.8,21.19v-.36l-.09.09-.08,0,.19-.19h.08v.5Z" transform="translate(0 -4.04)"/><path class="cls-6" d="M39.54,24.61c0-.09.09-.16.24-.16s.33.2.14.3l-.22.13H40V25h-.48V24.9l.33-.2h0c.11-.05.08-.17-.08-.17s-.13,0-.14.1Z" transform="translate(0 -4.04)"/><path class="cls-6" d="M39.7,28.42h.11c.07,0,.09,0,.09-.07s-.06-.08-.13-.07a.13.13,0,0,0-.12.06l-.09,0a.21.21,0,0,1,.21-.11c.11,0,.23,0,.23.14a.1.1,0,0,1-.06.1.14.14,0,0,1,.09.12c0,.07-.08.14-.25.14s-.22-.06-.24-.12l.1,0s0,.08.14.08.16,0,.15-.09,0-.07-.12-.07h-.1Z" transform="translate(0 -4.04)"/><path class="cls-6" d="M33.08,41.61c0,.27,2.16.48,4.82.47s4.82-.25,4.82-.52-2.16-.48-4.82-.47S33.08,41.34,33.08,41.61Zm2.31-.06a7.08,7.08,0,0,1,2.51-.24,7.28,7.28,0,0,1,2.51.21,6.82,6.82,0,0,1-2.51.24A7.28,7.28,0,0,1,35.39,41.55Z" transform="translate(0 -4.04)"/><path class="cls-6" d="M37.9,42.23c-2.66,0-4.82-.19-4.82-.46v.31h0c0,.27,2.17.48,4.82.46s4.81-.24,4.82-.51h0v-.31C42.64,42,40.52,42.22,37.9,42.23Zm-4.82-.47h0Z" transform="translate(0 -4.04)"/><path class="cls-6" d="M97.17,63.92c0,.4-1.51.66-3.39.67s-3.39-.23-3.39-.63,1.52-.61,3.39-.62S97.17,63.52,97.17,63.92Z" transform="translate(0 -4.04)"/><path class="cls-6" d="M97.17,64.15c-.22.36-1.68.61-3.4.62-1.88,0-3.41-.21-3.41-.63,0,0,0,.29,0,.29h0c0,.42,1.53.67,3.39.66s3.37-.27,3.38-.69h0S97.19,64.12,97.17,64.15Z" transform="translate(0 -4.04)"/><path class="cls-6" d="M93.67,64l-1,0V60.6A8.87,8.87,0,0,1,92,58.18c-.06-1-.06-1-.08-12,0,0,1,0,1.89,0C93.82,56.89,93.67,64,93.67,64Z" transform="translate(0 -4.04)"/><path class="cls-6" d="M95,46.3c0,.28.12,11.5.08,12.16s-.19,1.72-.27,2.14v3.57l.29-.22s0-2.21,0-3.26a6.59,6.59,0,0,0,.52-2.43c0-.76,0-12,0-12Z" transform="translate(0 -4.04)"/><path class="cls-6" d="M93.7,46.25l1-.09s.14,11.55.1,12.22a21.4,21.4,0,0,1-.28,2.14c0,.51,0,3.51,0,3.51l-1,.13Z" transform="translate(0 -4.04)"/><path class="cls-6" d="M96.05,46.08l-4.58,0s-.06,0-.06.11,0,.11.06.11h.2v.34h-.2a.07.07,0,0,0-.06.07c0,.05,0,.11.07.11h.19v.27h-.2s-.06,0-.06.08,0,.08.06.08l4.58,0s.06,0,.06-.08,0-.08-.06-.08h-.2V46.8h.2s.06,0,.06-.07,0-.08-.06-.08h-.2v-.35h.2s.06,0,.06-.11S96.08,46.08,96.05,46.08Z" transform="translate(0 -4.04)"/><path class="cls-6" d="M90.85,57.53l0-20.46a.16.16,0,0,1,.16-.15h0l5.45,0a.19.19,0,0,1,.12,0h0a.12.12,0,0,1,0,.1h0l.06,20.41a.17.17,0,0,1-.07.12h0a2.72,2.72,0,0,1-1,.24h0c-.44.06-1,.07-1.77.09h0a12.56,12.56,0,0,1-1.85-.08h0a6.3,6.3,0,0,1-.94-.15h0l-.07,0h0a.15.15,0,0,1,0-.1Zm.32-.11.77.12h0c.45,0,1.11.08,1.81.07h0c.73,0,1.31,0,1.73-.09h0a4,4,0,0,0,.73-.12h0l.1,0h0l0-20.17-5.13,0,0,20.21Z" transform="translate(0 -4.04)"/><path class="cls-6" d="M90.82,37.07V37a.32.32,0,0,1,.08-.13h0a.77.77,0,0,1,.35-.17h0c.39-.09,1-.17,1.36-.26h0l.15,0h0c0-.26,0-1.45,0-1.45h0V34.8h1.9v.14s0,1.11,0,1.43h0l.17.06h0l.53.11h0a3.25,3.25,0,0,1,1.11.3h0a.18.18,0,0,1,.08.13h0v9.13h0v.15l-5.75,0,0-9.2ZM91.18,46l5.11,0V37h0a7.05,7.05,0,0,0-1-.2h0a3,3,0,0,1-.89-.26h0s0,0,0,0h0a.11.11,0,0,1,0-.09h0c0-.13,0-1,0-1.38H93.1c0,.36,0,1.3,0,1.36h0a.2.2,0,0,1-.07.13h0a1.9,1.9,0,0,1-.75.23h0l-.92.17h0l-.2.08h0l0,8.92Z" transform="translate(0 -4.04)"/><polygon class="cls-6" points="93.93 27.08 93.58 27.08 93.56 18.23 93.92 19.02 93.93 27.08"/><path class="cls-6" d="M94.19,31.51s-.06-.24-.08-.28l-.08,0-.1.17V33a.16.16,0,0,1-.18.14c-.1,0-.18-.06-.18-.13V31.45l-.12-.2s-.07,0-.08,0-.09.3-.09.3l-.15,0a8,8,0,0,0,.06,1.32c0,.19-.19.38-.28.56a20.06,20.06,0,0,0-.28,2.06l1.14,0c.83,0,1.09,0,1.09,0a18.8,18.8,0,0,0-.24-2c-.1-.18-.33-.4-.3-.58a9,9,0,0,0,0-1.33A.8.8,0,0,0,94.19,31.51Z" transform="translate(0 -4.04)"/><path class="cls-6" d="M93.41,31.25c0-.11.15-.21.32-.21s.33.09.33.2a3.33,3.33,0,0,1-.34,0Z" transform="translate(0 -4.04)"/><path class="cls-6" d="M95,35.5s-.05.08-.11.09H92.5c-.07,0-.12,0-.12-.08h0c0-.05.05-.09.12-.09h2.43c.06,0,.11,0,.11.08Z" transform="translate(0 -4.04)"/><path class="cls-9" d="M91.88,38.16s0,0,0,0h0s0,0,0,0h0l2.88,0s0,0,0,0h0a0,0,0,0,1,0,0H91.88Z" transform="translate(0 -4.04)"/><path class="cls-9" d="M91.89,41.67s0,0,0,0h0s0,0,0,0h0l2.88,0a0,0,0,0,1,0,0h0s0,0,0,0H91.89Z" transform="translate(0 -4.04)"/><path class="cls-9" d="M91.89,45.26s0,0,0,0h0s0,0,0,0h0l2.89,0a0,0,0,0,1,0,0h0a0,0,0,0,1,0,0H91.89Z" transform="translate(0 -4.04)"/><path class="cls-9" d="M91.88,38.82s0,0,0,0h0s0,0,0,0h1.3s0,0,0,0h0s0,0,0,0h-1.3Z" transform="translate(0 -4.04)"/><path class="cls-9" d="M91.88,39.54s0,0,0,0h0s0,0,0,0h1.3s0,0,0,0h0s0,0,0,0h-1.3Z" transform="translate(0 -4.04)"/><path class="cls-9" d="M91.88,40.25s0,0,0,0h0s0,0,0,0h1.3s0,0,0,0h0a0,0,0,0,1,0,0h-1.3Z" transform="translate(0 -4.04)"/><path class="cls-9" d="M91.89,41s0,0,0,0h0a0,0,0,0,1,0,0h1.3a0,0,0,0,1,0,0h0s0,0,0,0H91.89Z" transform="translate(0 -4.04)"/><path class="cls-9" d="M91.89,42.4s0,0,0,0h0a0,0,0,0,1,0,0h1.3s0,0,0,0h0a.05.05,0,0,1,0,0h-1.3Z" transform="translate(0 -4.04)"/><path class="cls-9" d="M91.89,43.12s0,0,0,0h0s0,0,0,0h1.3a0,0,0,0,1,0,0h0s0,0,0,0h-1.3Z" transform="translate(0 -4.04)"/><path class="cls-9" d="M91.89,43.83s0,0,0,0h0a0,0,0,0,1,0,0h1.3s0,0,0,0h0s0,0,0,0h-1.3Z" transform="translate(0 -4.04)"/><path class="cls-9" d="M91.89,44.55a0,0,0,0,1,0,0h0s0,0,0,0h1.3a0,0,0,0,1,0,0h0a0,0,0,0,1,0,0H91.89Z" transform="translate(0 -4.04)"/><path class="cls-6" d="M95.51,38.35V38l-.09.09-.07,0,.18-.18h.07v.48Z" transform="translate(0 -4.04)"/><path class="cls-6" d="M95.26,41.55c0-.09.09-.15.23-.15s.31.19.14.28l-.21.12h.3v.07h-.46v0l.31-.19h0c.1-.06.07-.17-.08-.17a.12.12,0,0,0-.13.09Z" transform="translate(0 -4.04)"/><path class="cls-6" d="M95.42,45.12h.1a.08.08,0,0,0,.09-.07s-.07-.07-.13-.07-.1,0-.11.06h-.08a.18.18,0,0,1,.19-.11c.11,0,.22,0,.22.13a.1.1,0,0,1-.06.1.11.11,0,0,1,.08.11c0,.07-.07.13-.23.13s-.2,0-.22-.12h.09s0,.07.13.07.15,0,.14-.08,0-.06-.11-.06h-.1Z" transform="translate(0 -4.04)"/><path class="cls-6" d="M89.21,57.48c0,.26,2,.45,4.52.44s4.52-.23,4.52-.48-2-.45-4.53-.44S89.21,57.23,89.21,57.48Zm2.17-.06a7.07,7.07,0,0,1,2.35-.22,6.51,6.51,0,0,1,2.35.2,6.63,6.63,0,0,1-2.35.23A6.64,6.64,0,0,1,91.38,57.42Z" transform="translate(0 -4.04)"/><path class="cls-6" d="M93.73,58.07c-2.49,0-4.52-.19-4.52-.44v.3h0c0,.25,2,.45,4.52.44s4.5-.23,4.52-.49h0V57.6C98.17,57.85,96.18,58.05,93.73,58.07Zm-4.52-.45h0Zm0,0Z" transform="translate(0 -4.04)"/><rect class="cls-6" x="40.95" y="32.93" width="33.22" height="22.71"/><path class="cls-6" d="M63.85,23.49h-13a4.81,4.81,0,0,0-5,4.58v4.54h3.83V29c0-2,.51-2.38,2.65-2.38H62.38c2.14,0,2.81.42,2.81,2.38v3.58h3.68V28.07A4.82,4.82,0,0,0,63.85,23.49Z" transform="translate(0 -4.04)"/><path class="cls-10" d="M77.1,31.94H37.58c-4.5,0-8.14,3-8.14,7.11V59.73c0,4.11,3.64,7.45,8.14,7.45H77.1c4.5,0,8.15-3.34,8.15-7.45V39.05C85.25,34.93,81.6,31.94,77.1,31.94Zm-9.27,21a.36.36,0,0,1-.39.35H62.09a.21.21,0,0,0-.21.2v4.89a.37.37,0,0,1-.38.35h-7a.37.37,0,0,1-.39-.35V53.45a.2.2,0,0,0-.21-.2H48.52a.36.36,0,0,1-.38-.35V46.47a.37.37,0,0,1,.38-.35h5.35a.2.2,0,0,0,.21-.19V41a.37.37,0,0,1,.39-.36h7a.37.37,0,0,1,.38.36v4.89a.2.2,0,0,0,.21.19h5.35a.37.37,0,0,1,.39.35Z" transform="translate(0 -4.04)"/><rect class="cls-6" x="32.63" y="55.59" width="15.91" height="15.49"/><polygon class="cls-11" points="32.63 71.08 43.47 69.61 43.47 67.44 32.63 67.44 32.63 71.08"/><rect class="cls-12" x="15.45" y="54.12" width="28.02" height="15.49"/><rect class="cls-6" x="14.3" y="53.03" width="9.89" height="16.58"/><path class="cls-12" d="M61.18,76.57s7-.73,7.69-.39,5.85,2.79,6.58,3,8,2.08,9,1.94c.77-.1,1.39-1.37-.85-2.31S79,76.89,79.54,76.61s9.19,0,10.33.14c1.39.14,3.74,0,4-1s-2.37-1.29-3.89-1.44-4.62-.6-4.64-.82,7.37.1,9.41-.69c.7-.27,1.06-1.78-.72-2s-9,0-8.8-.17,7-.4,7.81-.7.88-.78.37-1.35-6-.56-7.05-.7S83,67.94,83,67.73s5.06,0,5.92-.18,1.43-.61,1.1-1-1.7-.82-4.77-1.17a50.61,50.61,0,0,0-9.13.27c-2,.32-6.51,2.44-7.71,2.18s-7.11-1.07-7.33-1S61.18,76.57,61.18,76.57Z" transform="translate(0 -4.04)"/><path class="cls-6" d="M62.31,81.24s5.78-3.6,6.6-3.62,6.61,0,7.34-.17,8.17-1.59,9-2.13c.63-.42.53-1.81-1.93-1.69s-5.08.33-4.72-.17,8.15-3.88,9.21-4.27c1.31-.47,3.33-1.56,3-2.6S88,66.45,86.59,67s-4.39,1.43-4.52,1.25,6.57-3,8-4.62c.49-.54,0-2-1.63-1.43s-8,3.83-7.87,3.6,6-3.34,6.55-3.95.39-1.06-.36-1.35-5.61,2.06-6.59,2.38-2.88,1.45-3,1.3,4.47-2.19,5.15-2.69,1-1.14.46-1.36-1.92,0-4.81,1a47.83,47.83,0,0,0-8,4.12c-1.57,1.12-4.52,4.93-5.7,5.22s-6.85,2.08-7,2.23S62.31,81.24,62.31,81.24Z" transform="translate(0 -4.04)"/></g></g></g></svg>